<?xml version="1.0" encoding="iso-8859-1"?>
<!-- Generator: Adobe Illustrator 19.0.0, SVG Export Plug-In . SVG Version: 6.00 Build 0)  -->
<svg version="1.1" id="Layer_1" xmlns="http://www.w3.org/2000/svg" xmlns:xlink="http://www.w3.org/1999/xlink" x="0px" y="0px"
	 viewBox="0 0 512 512" style="enable-background:new 0 0 512 512;" xml:space="preserve">
<circle style="fill:#88C5CC;" cx="256" cy="256" r="256"/>
<path style="fill:#80B9BF;" d="M470.908,395.032c-0.016-0.164-0.024-0.324-0.06-0.484c-0.016-0.072-0.016-0.14-0.036-0.212
	c-0.092-0.34-0.236-0.672-0.42-0.984c-0.016-0.02-0.032-0.032-0.044-0.048c-0.048-0.084-0.112-0.136-0.168-0.212
	c-0.072-0.096-0.16-0.172-0.236-0.26c-0.016-0.252-0.04-0.5-0.088-0.744c-0.016-0.076-0.016-0.14-0.036-0.216
	c-0.092-0.34-0.236-0.672-0.42-0.984c-0.016-0.02-0.032-0.032-0.044-0.048c-0.048-0.08-0.112-0.136-0.168-0.212
	c-0.072-0.096-0.16-0.172-0.236-0.26c-0.016-0.252-0.04-0.5-0.088-0.744c-0.016-0.076-0.016-0.14-0.036-0.212
	c-0.092-0.34-0.236-0.672-0.42-0.984c-0.016-0.02-0.032-0.032-0.044-0.052c-0.048-0.08-0.112-0.132-0.168-0.212
	c-0.072-0.092-0.16-0.172-0.236-0.256c-0.016-0.252-0.04-0.496-0.088-0.744c-0.016-0.072-0.016-0.14-0.036-0.212
	c-0.092-0.34-0.236-0.672-0.42-0.984c-0.016-0.02-0.032-0.032-0.044-0.048c-0.048-0.084-0.112-0.136-0.168-0.212
	c-0.072-0.096-0.16-0.172-0.236-0.26c-0.016-0.252-0.04-0.5-0.088-0.744c-0.016-0.076-0.016-0.14-0.036-0.216
	c-0.092-0.34-0.236-0.672-0.42-0.984c-0.016-0.02-0.032-0.032-0.044-0.048c-0.048-0.08-0.112-0.136-0.168-0.212
	c-0.072-0.096-0.156-0.172-0.236-0.26c-0.016-0.252-0.04-0.5-0.084-0.744c-0.02-0.076-0.02-0.14-0.04-0.212
	c-0.092-0.34-0.236-0.672-0.42-0.984c-0.016-0.02-0.032-0.032-0.04-0.052c-0.052-0.08-0.116-0.132-0.172-0.212
	c-0.072-0.092-0.156-0.172-0.236-0.256c-0.012-0.252-0.04-0.5-0.084-0.748c-0.02-0.072-0.02-0.14-0.04-0.212
	c-0.092-0.34-0.236-0.672-0.42-0.984c-0.016-0.02-0.032-0.032-0.04-0.048c-0.052-0.084-0.116-0.136-0.172-0.216
	c-0.072-0.092-0.156-0.172-0.236-0.256c-0.012-0.252-0.04-0.496-0.084-0.744c-0.016-0.072-0.016-0.136-0.04-0.212
	c-0.092-0.34-0.236-0.672-0.42-0.984c-0.016-0.02-0.032-0.032-0.04-0.048c-0.052-0.08-0.116-0.136-0.172-0.212
	c-0.072-0.096-0.156-0.172-0.236-0.26c-0.012-0.252-0.04-0.5-0.084-0.744c-0.016-0.076-0.016-0.14-0.04-0.212
	c-0.092-0.34-0.236-0.676-0.42-0.984c-0.016-0.02-0.032-0.036-0.04-0.052c-0.052-0.08-0.116-0.132-0.172-0.212
	c-0.072-0.092-0.156-0.172-0.236-0.256c-0.012-0.252-0.036-0.5-0.084-0.748c-0.016-0.072-0.016-0.14-0.04-0.212
	c-0.092-0.34-0.236-0.672-0.42-0.984c-0.016-0.02-0.032-0.032-0.04-0.048c-0.052-0.084-0.112-0.136-0.172-0.216
	c-0.072-0.092-0.156-0.172-0.236-0.256c-0.012-0.252-0.036-0.5-0.084-0.748c-0.016-0.072-0.016-0.136-0.04-0.212
	c-0.092-0.34-0.236-0.672-0.42-0.984c-0.016-0.02-0.032-0.032-0.04-0.048c-0.052-0.084-0.112-0.136-0.172-0.212
	c-0.072-0.096-0.156-0.172-0.236-0.26c-0.012-0.252-0.036-0.496-0.084-0.74c-0.016-0.076-0.016-0.14-0.04-0.216
	c-0.092-0.34-0.236-0.672-0.42-0.98c-0.016-0.02-0.032-0.036-0.04-0.052c-0.052-0.08-0.112-0.132-0.172-0.212
	c-0.072-0.092-0.156-0.172-0.236-0.256c-0.012-0.252-0.036-0.5-0.084-0.748c-0.016-0.072-0.016-0.14-0.04-0.212
	c-0.092-0.34-0.236-0.672-0.42-0.984c-0.016-0.02-0.032-0.032-0.04-0.048c-0.048-0.084-0.112-0.136-0.172-0.216
	c-0.072-0.092-0.156-0.172-0.236-0.256c-0.012-0.252-0.036-0.5-0.084-0.748c-0.016-0.072-0.016-0.136-0.04-0.212
	c-0.092-0.34-0.236-0.672-0.42-0.984c-0.012-0.02-0.032-0.032-0.04-0.048c-0.048-0.084-0.112-0.136-0.172-0.212
	c-0.072-0.096-0.156-0.172-0.236-0.26c-0.012-0.252-0.036-0.5-0.084-0.744c-0.016-0.076-0.016-0.14-0.04-0.216
	c-0.092-0.34-0.236-0.672-0.42-0.98c-0.012-0.024-0.032-0.036-0.04-0.052c-0.048-0.08-0.112-0.136-0.172-0.212
	c-0.072-0.096-0.156-0.172-0.236-0.26c-0.012-0.252-0.036-0.496-0.084-0.74c-0.016-0.072-0.016-0.14-0.04-0.212
	c-0.092-0.34-0.236-0.672-0.42-0.984c-0.012-0.02-0.032-0.032-0.04-0.048c-0.048-0.084-0.112-0.136-0.172-0.216
	c-0.072-0.092-0.156-0.172-0.236-0.256c-0.012-0.252-0.036-0.5-0.084-0.748c-0.016-0.072-0.016-0.136-0.04-0.212
	c-0.092-0.34-0.236-0.672-0.42-0.984c-0.012-0.02-0.028-0.032-0.04-0.048c-0.048-0.084-0.112-0.136-0.172-0.212
	c-0.072-0.096-0.156-0.172-0.236-0.26c-0.012-0.252-0.036-0.5-0.084-0.744c-0.016-0.076-0.016-0.14-0.04-0.216
	c-0.092-0.34-0.236-0.672-0.42-0.98c-0.012-0.024-0.028-0.036-0.04-0.052c-0.048-0.08-0.112-0.136-0.172-0.212
	c-0.072-0.096-0.156-0.176-0.236-0.268c-0.016-0.248-0.04-0.492-0.088-0.736c-0.02-0.076-0.02-0.14-0.036-0.212
	c-0.096-0.34-0.24-0.672-0.424-0.984c-0.012-0.02-0.028-0.032-0.04-0.052c-0.052-0.08-0.112-0.132-0.168-0.212
	c-0.072-0.092-0.16-0.172-0.236-0.256c-0.016-0.252-0.04-0.5-0.088-0.748c-0.02-0.072-0.02-0.14-0.036-0.212
	c-0.096-0.34-0.24-0.672-0.424-0.984c-0.012-0.02-0.028-0.032-0.04-0.048c-0.052-0.084-0.112-0.136-0.168-0.212
	c-0.072-0.096-0.16-0.176-0.236-0.26c-0.016-0.252-0.04-0.496-0.088-0.74c-0.016-0.076-0.016-0.14-0.036-0.216
	c-0.096-0.34-0.24-0.672-0.424-0.984c-0.012-0.02-0.028-0.032-0.04-0.048c-0.052-0.08-0.112-0.136-0.168-0.212
	c-0.072-0.096-0.16-0.172-0.236-0.26c-0.016-0.252-0.04-0.5-0.088-0.744c-0.016-0.076-0.016-0.14-0.036-0.212
	c-0.096-0.344-0.24-0.672-0.424-0.984c-0.012-0.02-0.028-0.032-0.04-0.052c-0.052-0.08-0.112-0.132-0.168-0.212
	c-0.072-0.092-0.16-0.172-0.236-0.256c-0.016-0.252-0.04-0.5-0.088-0.748c-0.016-0.072-0.016-0.14-0.036-0.212
	c-0.096-0.34-0.236-0.672-0.424-0.984c-0.012-0.02-0.028-0.032-0.04-0.048c-0.052-0.084-0.112-0.136-0.168-0.216
	c-0.072-0.092-0.16-0.172-0.236-0.256c-0.016-0.252-0.04-0.5-0.088-0.748c-0.016-0.072-0.016-0.136-0.036-0.212
	c-0.096-0.34-0.236-0.672-0.424-0.984c-0.012-0.02-0.028-0.032-0.04-0.048c-0.052-0.08-0.112-0.136-0.168-0.212
	c-0.072-0.096-0.16-0.172-0.236-0.26c-0.016-0.252-0.04-0.496-0.088-0.74c-0.016-0.076-0.016-0.14-0.036-0.212
	c-0.096-0.344-0.236-0.676-0.424-0.984c-0.012-0.024-0.028-0.036-0.04-0.052c-0.052-0.08-0.112-0.136-0.168-0.212
	c-0.072-0.096-0.16-0.172-0.236-0.26c-0.016-0.252-0.04-0.5-0.088-0.744c-0.016-0.072-0.016-0.14-0.036-0.212
	c-0.096-0.34-0.236-0.672-0.42-0.984c-0.016-0.02-0.032-0.032-0.044-0.048c-0.052-0.084-0.112-0.136-0.168-0.216
	c-0.072-0.092-0.16-0.172-0.236-0.256c-0.016-0.252-0.04-0.5-0.088-0.748c-0.016-0.072-0.016-0.136-0.036-0.212
	c-0.092-0.34-0.236-0.672-0.42-0.984c-0.016-0.02-0.032-0.032-0.044-0.048c-0.048-0.084-0.112-0.136-0.168-0.212
	c-0.072-0.096-0.16-0.172-0.236-0.26c-0.016-0.252-0.04-0.5-0.088-0.744c-0.016-0.076-0.016-0.14-0.036-0.216
	c-0.092-0.34-0.236-0.672-0.42-0.98c-0.016-0.024-0.032-0.036-0.044-0.052c-0.048-0.08-0.112-0.136-0.168-0.212
	c-0.072-0.096-0.16-0.172-0.236-0.26c-0.016-0.252-0.04-0.496-0.088-0.74c-0.016-0.072-0.016-0.14-0.036-0.212
	c-0.092-0.34-0.236-0.672-0.42-0.984c-0.016-0.02-0.032-0.032-0.044-0.048c-0.048-0.084-0.112-0.136-0.168-0.216
	c-0.072-0.092-0.16-0.172-0.236-0.256c-0.016-0.252-0.04-0.5-0.088-0.748c-0.016-0.072-0.016-0.14-0.036-0.212
	c-0.092-0.34-0.236-0.672-0.42-0.984c-0.016-0.02-0.032-0.032-0.044-0.048c-0.048-0.084-0.112-0.136-0.168-0.212
	c-0.072-0.096-0.16-0.172-0.236-0.26c-0.016-0.252-0.04-0.5-0.088-0.744c-0.016-0.076-0.016-0.14-0.036-0.216
	c-0.092-0.34-0.236-0.672-0.42-0.984c-0.016-0.02-0.032-0.032-0.044-0.048c-0.048-0.08-0.112-0.136-0.168-0.212
	c-0.072-0.096-0.16-0.172-0.236-0.26c-0.016-0.252-0.04-0.5-0.088-0.744c-0.016-0.076-0.016-0.14-0.036-0.212
	c-0.092-0.34-0.236-0.672-0.42-0.984c-0.016-0.02-0.032-0.032-0.044-0.052c-0.048-0.08-0.112-0.132-0.168-0.212
	c-0.072-0.092-0.156-0.172-0.236-0.256c-0.016-0.252-0.04-0.5-0.084-0.748c-0.02-0.072-0.02-0.14-0.04-0.212
	c-0.092-0.34-0.236-0.672-0.42-0.984c-0.016-0.02-0.032-0.032-0.04-0.048c-0.052-0.084-0.116-0.136-0.172-0.212
	c-0.072-0.096-0.156-0.176-0.236-0.26c-0.012-0.252-0.04-0.496-0.084-0.74c-0.02-0.076-0.02-0.14-0.04-0.216
	c-0.092-0.34-0.236-0.672-0.42-0.984c-0.016-0.02-0.032-0.032-0.04-0.048c-0.052-0.08-0.116-0.136-0.172-0.212
	c-0.072-0.096-0.156-0.172-0.236-0.26c-0.012-0.252-0.04-0.5-0.084-0.744c-0.02-0.076-0.02-0.14-0.04-0.212
	c-0.092-0.34-0.236-0.672-0.42-0.984c-0.016-0.02-0.032-0.032-0.04-0.052c-0.052-0.08-0.116-0.132-0.172-0.212
	c-0.072-0.092-0.156-0.172-0.236-0.256c-0.012-0.252-0.04-0.5-0.084-0.748c-0.016-0.072-0.016-0.14-0.04-0.212
	c-0.092-0.34-0.236-0.672-0.42-0.984c-0.016-0.02-0.032-0.032-0.04-0.048c-0.052-0.084-0.116-0.136-0.172-0.216
	c-0.072-0.092-0.156-0.172-0.236-0.256c-0.012-0.252-0.04-0.5-0.084-0.744c-0.016-0.076-0.016-0.14-0.04-0.216
	c-0.092-0.34-0.236-0.672-0.42-0.984c-0.016-0.02-0.032-0.032-0.04-0.048c-0.052-0.08-0.116-0.136-0.172-0.212
	c-0.072-0.096-0.156-0.172-0.236-0.26c-0.012-0.252-0.036-0.496-0.084-0.74c-0.016-0.076-0.016-0.14-0.04-0.212
	c-0.092-0.34-0.236-0.676-0.42-0.984c-0.016-0.02-0.032-0.036-0.04-0.052c-0.052-0.08-0.112-0.132-0.172-0.212
	c-0.072-0.092-0.156-0.172-0.236-0.256c-0.012-0.252-0.036-0.5-0.084-0.748c-0.016-0.072-0.016-0.14-0.04-0.212
	c-0.092-0.34-0.236-0.672-0.42-0.984c-0.016-0.02-0.032-0.032-0.04-0.048c-0.052-0.084-0.112-0.136-0.172-0.216
	c-0.072-0.092-0.156-0.172-0.236-0.256c-0.012-0.252-0.036-0.5-0.084-0.748c-0.016-0.072-0.016-0.136-0.04-0.212
	c-0.092-0.34-0.236-0.672-0.42-0.984c-0.016-0.02-0.032-0.032-0.04-0.048c-0.052-0.084-0.112-0.136-0.172-0.212
	c-0.072-0.096-0.156-0.172-0.236-0.26c-0.012-0.252-0.036-0.5-0.084-0.744c-0.016-0.076-0.016-0.14-0.04-0.212
	c-0.092-0.344-0.236-0.676-0.42-0.984c-0.016-0.024-0.032-0.036-0.04-0.052c-0.052-0.08-0.112-0.136-0.172-0.212
	c-0.072-0.096-0.156-0.172-0.236-0.26c-0.012-0.252-0.036-0.492-0.084-0.74c-0.016-0.072-0.016-0.14-0.04-0.212
	c-0.092-0.34-0.236-0.672-0.42-0.984c-0.016-0.02-0.032-0.032-0.04-0.048c-0.048-0.084-0.112-0.136-0.172-0.216
	c-0.072-0.092-0.156-0.172-0.236-0.256c-0.012-0.252-0.036-0.5-0.084-0.748c-0.016-0.072-0.016-0.136-0.04-0.212
	c-0.092-0.34-0.236-0.672-0.42-0.984c-0.012-0.02-0.032-0.032-0.04-0.048c-0.048-0.084-0.112-0.136-0.172-0.212
	c-0.076-0.096-0.156-0.176-0.24-0.268c-0.012-0.248-0.036-0.492-0.088-0.736c-0.016-0.076-0.016-0.14-0.032-0.216
	c-0.096-0.34-0.24-0.672-0.424-0.98c-0.012-0.024-0.028-0.036-0.044-0.052c-0.048-0.08-0.108-0.136-0.164-0.212
	c-0.076-0.096-0.164-0.172-0.24-0.26c-0.012-0.252-0.036-0.5-0.088-0.744c-0.016-0.072-0.016-0.14-0.032-0.212
	c-0.096-0.34-0.24-0.672-0.424-0.984c-0.012-0.02-0.028-0.032-0.044-0.048c-0.048-0.084-0.108-0.136-0.164-0.216
	c-0.076-0.092-0.164-0.172-0.24-0.256c-0.012-0.252-0.036-0.5-0.088-0.748c-0.016-0.072-0.016-0.14-0.032-0.212
	c-0.096-0.34-0.24-0.672-0.424-0.984c-0.012-0.02-0.028-0.032-0.044-0.048c-0.048-0.084-0.108-0.136-0.164-0.212
	c-0.076-0.096-0.164-0.172-0.24-0.26c-0.012-0.252-0.036-0.496-0.088-0.74c-0.016-0.076-0.016-0.14-0.032-0.216
	c-0.096-0.34-0.24-0.672-0.424-0.984c-0.012-0.02-0.028-0.032-0.044-0.048c-0.048-0.08-0.108-0.136-0.164-0.212
	c-0.076-0.096-0.164-0.172-0.236-0.26c-0.016-0.252-0.04-0.5-0.092-0.744c-0.016-0.076-0.016-0.14-0.032-0.212
	c-0.096-0.34-0.24-0.672-0.424-0.984c-0.012-0.02-0.028-0.032-0.044-0.052c-0.048-0.08-0.108-0.132-0.164-0.212
	c-0.072-0.092-0.16-0.172-0.236-0.256c-0.016-0.252-0.04-0.5-0.088-0.748c-0.02-0.072-0.02-0.14-0.036-0.212
	c-0.096-0.34-0.24-0.672-0.424-0.984c-0.012-0.02-0.028-0.032-0.04-0.048c-0.052-0.084-0.112-0.136-0.168-0.212
	c-0.072-0.096-0.16-0.176-0.236-0.26c-0.016-0.252-0.04-0.5-0.088-0.748c-0.02-0.072-0.02-0.136-0.036-0.212
	c-0.096-0.34-0.24-0.672-0.424-0.984c-0.012-0.02-0.028-0.032-0.04-0.048c-0.052-0.08-0.112-0.136-0.168-0.212
	c-0.072-0.096-0.16-0.172-0.236-0.26c-0.016-0.252-0.04-0.496-0.088-0.74c-0.02-0.076-0.02-0.14-0.036-0.212
	c-0.096-0.344-0.24-0.672-0.424-0.984c-0.012-0.02-0.028-0.032-0.04-0.052c-0.052-0.08-0.112-0.132-0.168-0.212
	c-0.072-0.092-0.16-0.172-0.236-0.256c-0.016-0.252-0.04-0.5-0.088-0.748c-0.016-0.072-0.016-0.14-0.036-0.212
	c-0.096-0.34-0.24-0.672-0.424-0.984c-0.012-0.02-0.028-0.032-0.04-0.048c-0.052-0.084-0.112-0.136-0.168-0.216
	c-0.072-0.092-0.16-0.172-0.236-0.256c-0.016-0.252-0.04-0.5-0.088-0.748c-0.016-0.072-0.016-0.136-0.036-0.212
	c-0.096-0.34-0.24-0.672-0.424-0.984c-0.012-0.02-0.028-0.032-0.04-0.048c-0.052-0.08-0.112-0.136-0.168-0.212
	c-0.072-0.096-0.16-0.172-0.236-0.26c-0.016-0.252-0.04-0.5-0.088-0.744c-0.016-0.076-0.016-0.14-0.036-0.216
	c-0.096-0.34-0.236-0.672-0.424-0.98c-0.012-0.02-0.028-0.036-0.04-0.052c-0.052-0.08-0.112-0.132-0.168-0.212
	c-0.072-0.092-0.16-0.172-0.236-0.256c-0.016-0.252-0.04-0.5-0.088-0.744c-0.016-0.072-0.016-0.14-0.036-0.212
	c-0.096-0.34-0.236-0.672-0.424-0.984c-0.012-0.02-0.028-0.032-0.04-0.048c-0.052-0.084-0.112-0.136-0.168-0.216
	c-0.072-0.092-0.16-0.172-0.236-0.256c-0.016-0.252-0.04-0.5-0.088-0.748c-0.016-0.072-0.016-0.136-0.036-0.212
	c-0.096-0.34-0.236-0.672-0.424-0.984c-0.012-0.02-0.028-0.032-0.04-0.048c-0.052-0.084-0.112-0.136-0.168-0.212
	c-0.072-0.096-0.16-0.172-0.236-0.26c-0.016-0.252-0.04-0.5-0.088-0.744c-0.016-0.076-0.016-0.14-0.036-0.216
	c-0.096-0.34-0.236-0.672-0.424-0.98c-0.012-0.024-0.028-0.036-0.04-0.052c-0.052-0.08-0.112-0.136-0.168-0.212
	c-0.072-0.096-0.16-0.172-0.236-0.26c-0.016-0.252-0.04-0.5-0.088-0.744c-0.016-0.072-0.016-0.14-0.036-0.212
	c-0.096-0.34-0.236-0.672-0.42-0.984c-0.016-0.02-0.032-0.032-0.044-0.048c-0.048-0.084-0.112-0.136-0.168-0.216
	c-0.072-0.092-0.16-0.172-0.236-0.256c-0.016-0.252-0.04-0.5-0.088-0.748c-0.016-0.072-0.016-0.136-0.036-0.212
	c-0.092-0.34-0.236-0.672-0.42-0.984c-0.016-0.02-0.032-0.032-0.044-0.048c-0.048-0.084-0.112-0.136-0.168-0.212
	c-0.072-0.096-0.16-0.172-0.236-0.26c-0.016-0.252-0.04-0.496-0.088-0.74c-0.016-0.076-0.016-0.14-0.036-0.216
	c-0.092-0.34-0.236-0.672-0.42-0.984c-0.016-0.02-0.032-0.032-0.044-0.048c-0.048-0.08-0.112-0.136-0.168-0.212
	c-0.072-0.096-0.16-0.172-0.236-0.26c-0.016-0.252-0.04-0.5-0.088-0.744c-0.016-0.076-0.016-0.14-0.036-0.212
	c-0.092-0.34-0.236-0.672-0.42-0.984c-0.016-0.02-0.032-0.032-0.044-0.052c-0.048-0.08-0.112-0.132-0.168-0.212
	c-0.072-0.092-0.16-0.172-0.236-0.256c-0.016-0.252-0.04-0.5-0.088-0.748c-0.016-0.072-0.016-0.14-0.036-0.212
	c-0.092-0.34-0.236-0.672-0.42-0.984c-0.016-0.02-0.032-0.032-0.044-0.048c-0.048-0.084-0.112-0.136-0.168-0.212
	c-0.072-0.096-0.16-0.176-0.236-0.26c-0.016-0.252-0.04-0.5-0.088-0.744c-0.016-0.076-0.016-0.14-0.036-0.216
	c-0.092-0.34-0.236-0.672-0.42-0.984c-0.016-0.02-0.032-0.032-0.044-0.048c-0.048-0.08-0.112-0.136-0.168-0.212
	c-0.072-0.096-0.16-0.172-0.236-0.26c-0.016-0.252-0.04-0.496-0.088-0.74c-0.016-0.076-0.016-0.14-0.036-0.212
	c-0.092-0.34-0.236-0.672-0.42-0.984c-0.016-0.02-0.032-0.032-0.044-0.052c-0.048-0.08-0.112-0.132-0.168-0.212
	c-0.072-0.092-0.156-0.172-0.236-0.256c-0.016-0.252-0.04-0.5-0.084-0.748c-0.02-0.072-0.02-0.14-0.04-0.212
	c-0.092-0.34-0.236-0.672-0.42-0.984c-0.016-0.02-0.032-0.032-0.04-0.048c-0.052-0.084-0.116-0.136-0.172-0.216
	c-0.072-0.092-0.156-0.172-0.236-0.256c-0.012-0.252-0.04-0.5-0.084-0.744c-0.02-0.076-0.02-0.14-0.04-0.216
	c-0.092-0.34-0.236-0.672-0.42-0.984c-0.016-0.02-0.032-0.032-0.04-0.048c-0.052-0.08-0.116-0.136-0.172-0.212
	c-0.072-0.096-0.156-0.172-0.236-0.26c-0.012-0.252-0.04-0.5-0.084-0.744c-0.02-0.076-0.02-0.14-0.04-0.212
	c-0.092-0.344-0.236-0.672-0.42-0.984c-0.016-0.02-0.032-0.032-0.04-0.052c-0.052-0.08-0.116-0.132-0.172-0.212
	c-0.072-0.092-0.156-0.172-0.236-0.256c-0.012-0.252-0.04-0.496-0.084-0.744c-0.016-0.072-0.016-0.14-0.04-0.212
	c-0.092-0.34-0.236-0.672-0.42-0.984c-0.016-0.02-0.032-0.032-0.04-0.048c-0.052-0.084-0.116-0.136-0.172-0.216
	c-0.072-0.092-0.156-0.176-0.24-0.264c-0.012-0.252-0.036-0.492-0.088-0.74c-0.016-0.072-0.016-0.136-0.036-0.212
	c-0.096-0.34-0.24-0.672-0.424-0.984c-0.008-0.02-0.024-0.032-0.04-0.048c-0.048-0.084-0.108-0.136-0.164-0.212
	c-0.076-0.096-0.164-0.172-0.24-0.26c-0.012-0.252-0.036-0.5-0.088-0.744c-0.016-0.076-0.016-0.14-0.036-0.216
	c-0.096-0.34-0.236-0.672-0.424-0.98c-0.008-0.024-0.024-0.036-0.04-0.052c-0.048-0.08-0.108-0.136-0.164-0.212
	c-0.076-0.096-0.164-0.172-0.24-0.26c-0.012-0.252-0.036-0.5-0.088-0.744c-0.016-0.072-0.016-0.14-0.036-0.212
	c-0.096-0.34-0.236-0.672-0.424-0.984c-0.008-0.02-0.024-0.032-0.04-0.048c-0.048-0.084-0.108-0.136-0.164-0.216
	c-0.076-0.092-0.164-0.172-0.24-0.256c-0.012-0.252-0.036-0.5-0.088-0.748c-0.016-0.072-0.016-0.14-0.036-0.212
	c-0.096-0.34-0.236-0.672-0.424-0.984c-0.008-0.02-0.024-0.032-0.04-0.048c-0.048-0.084-0.108-0.136-0.164-0.212
	c-0.076-0.096-0.164-0.172-0.24-0.26c-0.012-0.252-0.036-0.496-0.088-0.74c-0.016-0.076-0.016-0.14-0.032-0.216
	c-0.1-0.34-0.24-0.672-0.428-0.98c-0.008-0.024-0.024-0.036-0.04-0.052c-0.048-0.08-0.108-0.136-0.164-0.212
	c-0.076-0.096-0.164-0.172-0.24-0.26c-0.012-0.252-0.036-0.5-0.088-0.744c-0.016-0.072-0.016-0.14-0.032-0.212
	c-0.1-0.34-0.24-0.672-0.424-0.984c-0.012-0.02-0.028-0.032-0.044-0.048c-0.048-0.084-0.108-0.136-0.164-0.216
	c-0.076-0.092-0.164-0.172-0.24-0.256c-0.012-0.252-0.036-0.5-0.088-0.748c-0.016-0.072-0.016-0.14-0.032-0.212
	c-0.096-0.34-0.24-0.672-0.424-0.984c-0.012-0.02-0.028-0.032-0.044-0.048c-0.048-0.084-0.108-0.136-0.164-0.212
	c-0.076-0.096-0.164-0.172-0.24-0.26c-0.012-0.252-0.036-0.5-0.088-0.744c-0.016-0.076-0.016-0.14-0.032-0.216
	c-0.096-0.34-0.24-0.672-0.424-0.984c-0.012-0.02-0.028-0.032-0.044-0.048c-0.048-0.08-0.108-0.136-0.164-0.212
	c-0.076-0.096-0.164-0.172-0.24-0.26c-0.012-0.252-0.036-0.496-0.088-0.74c-0.016-0.076-0.016-0.14-0.032-0.212
	c-0.096-0.34-0.24-0.672-0.424-0.984c-0.012-0.02-0.028-0.032-0.044-0.052c-0.048-0.08-0.108-0.132-0.164-0.212
	c-0.076-0.092-0.164-0.172-0.24-0.256c-0.012-0.252-0.036-0.5-0.088-0.748c-0.016-0.072-0.016-0.14-0.032-0.212
	c-0.096-0.34-0.24-0.672-0.424-0.984c-0.012-0.02-0.028-0.032-0.044-0.048c-0.048-0.084-0.108-0.136-0.164-0.212
	c-0.076-0.096-0.164-0.176-0.24-0.26c-0.012-0.252-0.036-0.5-0.088-0.748c-0.016-0.072-0.016-0.136-0.032-0.212
	c-0.096-0.34-0.24-0.672-0.424-0.984c-0.012-0.02-0.028-0.032-0.044-0.048c-0.048-0.08-0.108-0.136-0.164-0.212
	c-0.076-0.096-0.164-0.172-0.24-0.26c-0.012-0.252-0.036-0.5-0.088-0.744c-0.016-0.076-0.016-0.14-0.032-0.212
	c-0.096-0.34-0.24-0.676-0.424-0.984c-0.012-0.02-0.028-0.036-0.044-0.052c-0.048-0.08-0.108-0.132-0.164-0.212
	c-0.072-0.092-0.16-0.172-0.236-0.256c-0.016-0.252-0.04-0.496-0.088-0.744c-0.02-0.072-0.02-0.14-0.036-0.212
	c-0.096-0.34-0.24-0.672-0.424-0.984c-0.012-0.02-0.028-0.032-0.04-0.048c-0.052-0.084-0.112-0.136-0.168-0.216
	c-0.072-0.092-0.16-0.172-0.236-0.256c-0.016-0.252-0.04-0.5-0.088-0.748c-0.02-0.072-0.02-0.136-0.036-0.212
	c-0.096-0.34-0.24-0.672-0.424-0.984c-0.012-0.02-0.028-0.032-0.04-0.048c-0.052-0.08-0.112-0.136-0.168-0.212
	c-0.072-0.096-0.16-0.172-0.236-0.26c-0.016-0.252-0.04-0.5-0.088-0.744c-0.02-0.076-0.02-0.14-0.036-0.216
	c-0.096-0.34-0.24-0.672-0.424-0.98c-0.012-0.02-0.028-0.036-0.04-0.052c-0.052-0.08-0.112-0.132-0.168-0.212
	c-0.072-0.092-0.16-0.172-0.236-0.256c-0.016-0.252-0.04-0.5-0.088-0.748c-0.016-0.072-0.016-0.14-0.036-0.212
	c-0.096-0.34-0.24-0.672-0.424-0.984c-0.012-0.02-0.028-0.032-0.04-0.048c-0.052-0.084-0.112-0.136-0.168-0.216
	c-0.072-0.092-0.16-0.172-0.236-0.256c-0.016-0.252-0.04-0.5-0.088-0.748c-0.016-0.072-0.016-0.136-0.036-0.212
	c-0.096-0.34-0.24-0.672-0.424-0.984c-0.012-0.02-0.028-0.032-0.04-0.048c-0.052-0.084-0.112-0.136-0.168-0.212
	c-0.072-0.096-0.16-0.172-0.236-0.26c-0.016-0.252-0.04-0.496-0.088-0.74c-0.016-0.076-0.016-0.14-0.036-0.216
	c-0.096-0.34-0.236-0.672-0.424-0.98c-0.012-0.024-0.028-0.036-0.04-0.052c-0.052-0.08-0.112-0.136-0.168-0.212
	c-0.072-0.096-0.16-0.172-0.236-0.26c-0.016-0.252-0.04-0.5-0.088-0.744c-0.016-0.072-0.016-0.14-0.036-0.212
	c-0.096-0.34-0.236-0.672-0.424-0.984c-0.012-0.02-0.028-0.032-0.04-0.048c-0.052-0.084-0.112-0.136-0.168-0.216
	c-0.072-0.092-0.16-0.172-0.236-0.256c-0.016-0.252-0.04-0.5-0.088-0.748c-0.016-0.072-0.016-0.136-0.036-0.212
	c-0.096-0.34-0.236-0.672-0.424-0.984c-0.012-0.02-0.028-0.032-0.04-0.048c-0.052-0.084-0.112-0.136-0.168-0.212
	c-0.072-0.096-0.16-0.172-0.236-0.26c-0.016-0.252-0.04-0.5-0.088-0.744c-0.016-0.076-0.016-0.14-0.036-0.216
	c-0.096-0.34-0.236-0.672-0.424-0.98c-0.012-0.024-0.028-0.036-0.04-0.052c-0.052-0.08-0.112-0.136-0.168-0.212
	c-0.072-0.096-0.16-0.172-0.236-0.26c-0.016-0.252-0.04-0.496-0.088-0.74c-0.016-0.076-0.016-0.14-0.036-0.212
	c-0.096-0.34-0.236-0.672-0.42-0.984c-0.016-0.02-0.032-0.032-0.044-0.052c-0.048-0.08-0.112-0.132-0.168-0.212
	c-0.072-0.092-0.16-0.172-0.236-0.256c-0.016-0.252-0.04-0.5-0.088-0.748c-0.016-0.072-0.016-0.14-0.036-0.212
	c-0.092-0.34-0.236-0.672-0.42-0.984c-0.016-0.02-0.032-0.032-0.044-0.048c-0.048-0.084-0.112-0.136-0.168-0.212
	c-0.072-0.096-0.16-0.176-0.236-0.26c-0.016-0.252-0.04-0.5-0.088-0.744c-0.016-0.076-0.016-0.14-0.036-0.216
	c-0.092-0.34-0.236-0.672-0.42-0.984c-0.016-0.02-0.032-0.032-0.044-0.048c-0.048-0.08-0.112-0.136-0.168-0.212
	c-0.072-0.096-0.16-0.172-0.236-0.26c-0.016-0.252-0.04-0.5-0.088-0.744c-0.016-0.076-0.016-0.14-0.036-0.212
	c-0.092-0.34-0.236-0.672-0.42-0.984c-0.016-0.02-0.032-0.032-0.044-0.052c-0.048-0.08-0.112-0.132-0.168-0.212
	c-0.08-0.092-0.16-0.176-0.244-0.264c-0.016-0.252-0.032-0.488-0.084-0.736c-0.016-0.072-0.016-0.14-0.036-0.212
	c-0.096-0.34-0.24-0.672-0.424-0.984c-0.008-0.02-0.028-0.032-0.04-0.048c-0.048-0.084-0.108-0.136-0.168-0.216
	c-0.076-0.092-0.16-0.172-0.24-0.256c-0.008-0.252-0.032-0.5-0.084-0.744c-0.016-0.076-0.016-0.14-0.036-0.216
	c-0.096-0.34-0.24-0.672-0.424-0.984c-0.008-0.02-0.028-0.032-0.04-0.048c-0.048-0.08-0.108-0.136-0.168-0.212
	c-0.076-0.096-0.16-0.172-0.24-0.26c-0.008-0.252-0.032-0.5-0.084-0.744c-0.016-0.076-0.016-0.14-0.036-0.212
	c-0.096-0.344-0.24-0.672-0.424-0.984c-0.008-0.02-0.024-0.032-0.04-0.052c-0.048-0.08-0.108-0.132-0.168-0.212
	c-0.072-0.092-0.16-0.172-0.236-0.256c-0.012-0.252-0.036-0.5-0.088-0.748c-0.016-0.072-0.016-0.14-0.036-0.212
	c-0.096-0.34-0.24-0.672-0.424-0.984c-0.008-0.02-0.024-0.032-0.04-0.048c-0.048-0.084-0.108-0.136-0.168-0.216
	c-0.072-0.092-0.16-0.172-0.236-0.256c-0.012-0.252-0.036-0.496-0.088-0.744c-0.016-0.072-0.016-0.136-0.036-0.212
	c-0.096-0.34-0.24-0.672-0.424-0.984c-0.008-0.02-0.024-0.032-0.04-0.048c-0.048-0.084-0.108-0.136-0.168-0.212
	c-0.072-0.096-0.16-0.172-0.236-0.26c-0.012-0.252-0.036-0.5-0.088-0.744c-0.016-0.076-0.016-0.14-0.036-0.212
	c-0.096-0.344-0.24-0.676-0.424-0.984c-0.008-0.024-0.024-0.036-0.04-0.052c-0.048-0.08-0.108-0.136-0.164-0.212
	c-0.076-0.096-0.164-0.172-0.24-0.26c-0.012-0.252-0.036-0.5-0.088-0.744c-0.016-0.072-0.016-0.14-0.036-0.212
	c-0.096-0.34-0.24-0.672-0.424-0.984c-0.008-0.02-0.024-0.032-0.04-0.048c-0.048-0.084-0.108-0.136-0.164-0.216
	c-0.076-0.092-0.164-0.172-0.24-0.256c-0.012-0.252-0.036-0.5-0.088-0.748c-0.016-0.072-0.016-0.136-0.036-0.212
	c-0.096-0.34-0.24-0.672-0.424-0.984c-0.008-0.02-0.024-0.032-0.04-0.048c-0.048-0.084-0.108-0.136-0.164-0.212
	c-0.076-0.096-0.164-0.172-0.24-0.26c-0.012-0.252-0.036-0.5-0.088-0.744c-0.016-0.076-0.016-0.14-0.036-0.216
	c-0.096-0.34-0.236-0.672-0.424-0.98c-0.008-0.024-0.024-0.036-0.04-0.052c-0.048-0.08-0.108-0.136-0.164-0.212
	c-0.076-0.096-0.164-0.172-0.24-0.26c-0.012-0.252-0.036-0.496-0.088-0.74c-0.016-0.072-0.016-0.14-0.036-0.212
	c-0.096-0.34-0.236-0.672-0.424-0.984c-0.008-0.02-0.024-0.032-0.04-0.048c-0.048-0.084-0.108-0.136-0.164-0.216
	c-0.076-0.092-0.164-0.172-0.24-0.256c-0.012-0.252-0.036-0.5-0.088-0.748c-0.016-0.072-0.016-0.14-0.036-0.212
	c-0.096-0.34-0.236-0.672-0.424-0.984c-0.008-0.02-0.024-0.032-0.04-0.048c-0.048-0.084-0.108-0.136-0.164-0.212
	c-0.076-0.096-0.164-0.172-0.24-0.26c-0.012-0.252-0.036-0.5-0.088-0.744c-0.016-0.076-0.016-0.14-0.032-0.216
	c-0.1-0.34-0.24-0.672-0.428-0.984c-0.008-0.02-0.024-0.032-0.04-0.048c-0.048-0.08-0.108-0.136-0.164-0.212
	c-0.18-0.244-0.368-0.46-0.584-0.652c-0.036-0.032-0.064-0.072-0.092-0.1C333.092,109.76,295.988,96,256,96
	c-2.672,0-5.332,0.072-7.98,0.196c-0.004,0-0.008,0-0.012,0c-36.948,1.72-71.332,15.384-102.308,40.708
	c-0.036,0.036-0.056,0.076-0.092,0.1c-0.216,0.192-0.408,0.416-0.58,0.648c-0.056,0.076-0.124,0.136-0.172,0.216
	c-0.008,0.02-0.028,0.032-0.036,0.052c-0.188,0.304-0.328,0.636-0.424,0.976c-0.02,0.084-0.02,0.156-0.04,0.244
	c-0.064,0.284-0.104,0.58-0.104,0.872c0,0.128,0.024,0.252,0.036,0.384c0.024,0.252,0.068,0.5,0.144,0.752
	c0.02,0.072,0.012,0.14,0.04,0.212c0.028,0.076,0.076,0.124,0.108,0.196c0.04,0.092,0.056,0.2,0.1,0.284l0.648,1.26
	c0.024,0.168,0.048,0.34,0.096,0.504c0.02,0.072,0.012,0.136,0.04,0.212c0.028,0.072,0.076,0.124,0.108,0.196
	c0.04,0.092,0.056,0.196,0.1,0.284l0.648,1.256c0.024,0.168,0.048,0.34,0.096,0.504c0.02,0.076,0.012,0.14,0.04,0.216
	c0.028,0.072,0.076,0.12,0.108,0.196c0.04,0.088,0.056,0.196,0.1,0.28l0.648,1.264c0.028,0.164,0.048,0.332,0.096,0.496
	c0.02,0.072,0.012,0.14,0.04,0.212c0.028,0.076,0.076,0.124,0.108,0.196c0.04,0.092,0.056,0.2,0.1,0.284l0.648,1.26
	c0.024,0.168,0.048,0.34,0.096,0.504c0.02,0.072,0.012,0.14,0.04,0.212s0.076,0.124,0.108,0.196c0.04,0.092,0.056,0.196,0.1,0.284
	l0.652,1.26c0.024,0.168,0.044,0.336,0.092,0.5c0.02,0.076,0.012,0.14,0.04,0.216c0.028,0.072,0.08,0.12,0.108,0.196
	c0.04,0.088,0.056,0.196,0.1,0.284l0.648,1.256c0.024,0.168,0.048,0.34,0.096,0.504c0.02,0.076,0.012,0.14,0.04,0.212
	c0.028,0.076,0.076,0.124,0.108,0.2c0.04,0.088,0.056,0.196,0.1,0.28l0.648,1.26c0.024,0.168,0.048,0.34,0.096,0.504
	c0.02,0.072,0.012,0.14,0.04,0.212s0.076,0.124,0.108,0.196c0.04,0.092,0.056,0.196,0.1,0.284l0.652,1.26
	c0.024,0.164,0.044,0.332,0.092,0.496c0.02,0.076,0.012,0.14,0.04,0.216c0.028,0.072,0.076,0.12,0.108,0.196
	c0.04,0.088,0.056,0.196,0.1,0.284l0.648,1.256c0.024,0.168,0.048,0.34,0.096,0.504c0.02,0.076,0.012,0.14,0.04,0.212
	c0.028,0.076,0.076,0.124,0.108,0.2c0.04,0.088,0.056,0.196,0.1,0.28l0.648,1.26c0.024,0.168,0.048,0.34,0.096,0.504
	c0.02,0.072,0.012,0.14,0.04,0.212c0.028,0.076,0.076,0.124,0.108,0.196c0.04,0.092,0.056,0.196,0.1,0.284l0.648,1.256
	c0.024,0.172,0.048,0.344,0.096,0.508c0.02,0.072,0.012,0.136,0.04,0.212c0.028,0.072,0.076,0.124,0.108,0.196
	c0.04,0.092,0.056,0.196,0.1,0.284l0.652,1.26c0.024,0.164,0.044,0.332,0.092,0.496c0.02,0.076,0.012,0.14,0.04,0.212
	c0.028,0.076,0.076,0.124,0.108,0.2c0.04,0.088,0.056,0.196,0.1,0.28l0.648,1.26c0.024,0.168,0.048,0.34,0.096,0.504
	c0.02,0.072,0.012,0.14,0.04,0.212c0.028,0.076,0.076,0.124,0.108,0.196c0.04,0.092,0.056,0.196,0.1,0.284l0.648,1.26
	c0.024,0.168,0.048,0.34,0.096,0.504c0.02,0.072,0.012,0.136,0.04,0.212c0.028,0.072,0.076,0.124,0.108,0.196
	c0.04,0.092,0.056,0.196,0.1,0.284l0.648,1.256c0.024,0.168,0.048,0.34,0.096,0.504c0.02,0.076,0.012,0.14,0.04,0.216
	c0.028,0.072,0.076,0.12,0.108,0.196c0.04,0.088,0.056,0.196,0.1,0.28l0.652,1.264c0.024,0.164,0.044,0.332,0.092,0.496
	c0.02,0.072,0.012,0.14,0.04,0.212c0.028,0.076,0.076,0.124,0.108,0.196c0.04,0.092,0.056,0.2,0.1,0.284l0.648,1.26
	c0.024,0.168,0.048,0.34,0.096,0.504c0.02,0.072,0.012,0.136,0.04,0.212c0.028,0.072,0.076,0.124,0.108,0.196
	c0.04,0.092,0.056,0.196,0.1,0.284l0.652,1.26c0.024,0.168,0.044,0.336,0.092,0.5c0.02,0.076,0.012,0.14,0.04,0.216
	c0.028,0.072,0.08,0.12,0.108,0.196c0.04,0.088,0.056,0.196,0.1,0.28l0.648,1.26c0.024,0.168,0.048,0.336,0.096,0.504
	c0.02,0.072,0.012,0.14,0.04,0.212c0.028,0.076,0.08,0.124,0.108,0.196c0.04,0.092,0.056,0.2,0.1,0.284l0.648,1.264
	c0.028,0.164,0.048,0.332,0.096,0.496c0.02,0.072,0.012,0.136,0.04,0.212c0.028,0.072,0.076,0.124,0.108,0.196
	c0.04,0.092,0.056,0.196,0.1,0.284l0.648,1.256c0.024,0.168,0.048,0.34,0.096,0.504c0.02,0.076,0.012,0.14,0.04,0.216
	c0.028,0.072,0.076,0.12,0.108,0.196c0.04,0.088,0.056,0.196,0.1,0.28l0.648,1.26c0.024,0.168,0.048,0.34,0.096,0.504
	c0.02,0.072,0.012,0.14,0.04,0.212c0.028,0.076,0.076,0.124,0.108,0.196c0.04,0.092,0.056,0.2,0.1,0.284l0.648,1.26
	c0.024,0.168,0.048,0.34,0.096,0.504c0.02,0.072,0.012,0.14,0.04,0.212s0.076,0.124,0.108,0.196c0.04,0.092,0.056,0.196,0.1,0.284
	l0.648,1.256c0.024,0.168,0.048,0.344,0.096,0.504c0.02,0.076,0.012,0.14,0.04,0.216c0.028,0.072,0.076,0.12,0.108,0.196
	c0.04,0.088,0.056,0.196,0.1,0.284l0.648,1.26c0.028,0.164,0.048,0.332,0.096,0.496c0.02,0.076,0.012,0.14,0.04,0.212
	c0.028,0.076,0.076,0.124,0.108,0.2c0.04,0.088,0.056,0.196,0.1,0.28l0.648,1.26c0.024,0.168,0.048,0.34,0.096,0.504
	c0.02,0.072,0.012,0.14,0.04,0.212s0.076,0.124,0.108,0.196c0.04,0.092,0.056,0.196,0.1,0.284l0.648,1.26
	c0.024,0.164,0.048,0.34,0.096,0.5c0.02,0.076,0.012,0.14,0.04,0.216c0.028,0.072,0.076,0.12,0.108,0.196
	c0.04,0.088,0.056,0.196,0.1,0.284l0.648,1.256c0.024,0.168,0.048,0.34,0.096,0.504c0.02,0.076,0.012,0.14,0.04,0.212
	c0.028,0.076,0.076,0.124,0.108,0.2c0.04,0.088,0.056,0.196,0.1,0.28l0.648,1.264c0.028,0.164,0.048,0.332,0.096,0.496
	c0.02,0.072,0.012,0.14,0.04,0.212c0.028,0.076,0.076,0.124,0.108,0.196c0.04,0.092,0.056,0.2,0.1,0.284l0.648,1.26
	c0.024,0.168,0.048,0.34,0.096,0.504c0.02,0.072,0.012,0.136,0.04,0.212c0.028,0.072,0.076,0.124,0.108,0.196
	c0.04,0.092,0.056,0.196,0.1,0.284l0.652,1.26c0.024,0.168,0.044,0.336,0.092,0.5c0.02,0.076,0.012,0.14,0.04,0.212
	c0.028,0.076,0.08,0.124,0.108,0.2c0.04,0.088,0.056,0.196,0.1,0.28l0.564,1.1V356h-12c-2.208,0-4,1.788-4,4v56
	c0,1.008,0.408,1.908,1.024,2.608c0.036,0.94,0.408,1.784,0.992,2.452c0.036,0.944,0.408,1.792,0.992,2.456
	c0.04,0.944,0.412,1.788,0.992,2.452c0.036,0.94,0.408,1.792,0.996,2.46c0.036,0.94,0.408,1.784,0.992,2.448
	c0.036,0.944,0.408,1.788,0.992,2.456c0.036,0.944,0.408,1.792,0.992,2.456c0.04,0.94,0.412,1.788,0.992,2.448
	c0.036,0.944,0.408,1.788,0.992,2.456c0.036,0.944,0.408,1.788,0.992,2.456c0.036,0.944,0.408,1.792,0.992,2.456
	c0.04,0.94,0.412,1.784,0.992,2.448c0.036,0.944,0.408,1.788,0.992,2.456c0.036,0.944,0.408,1.788,0.992,2.456
	c0.036,0.944,0.408,1.792,0.992,2.456c0.04,0.94,0.412,1.784,0.992,2.448c0.036,0.944,0.408,1.792,0.996,2.46
	c0.04,0.944,0.408,1.788,0.992,2.452c0.036,0.944,0.408,1.792,0.992,2.456c0.04,0.94,0.412,1.784,0.992,2.448
	c0.036,0.944,0.408,1.788,0.992,2.456c0.036,0.944,0.408,1.788,0.992,2.456c0.036,0.94,0.408,1.784,0.992,2.452
	c0.036,0.944,0.408,1.792,0.992,2.456c0.04,0.944,0.412,1.788,0.992,2.452c0.036,0.944,0.408,1.788,0.992,2.456
	c0.036,0.94,0.408,1.784,0.992,2.452c0.036,0.944,0.408,1.792,0.992,2.456c0.04,0.944,0.412,1.788,0.992,2.452
	c0.036,0.944,0.408,1.792,0.996,2.46c0.036,0.94,0.408,1.784,0.992,2.448c0.036,0.948,0.408,1.792,0.992,2.46
	c0.04,0.94,0.412,1.784,0.992,2.448c0.036,0.94,0.408,1.784,0.992,2.452c0.036,0.944,0.408,1.788,0.992,2.456
	c0.004,0.084,0.044,0.156,0.052,0.244C215.12,509.468,235.256,512,256,512C346.108,512,425.28,465.404,470.908,395.032z"/>
<path style="fill:#CC584C;" d="M336,364H180c-2.208,0-4-1.788-4-4V168c0-2.212,1.792-4,4-4h156c2.212,0,4,1.788,4,4v192
	C340,362.212,338.212,364,336,364z"/>
<path style="fill:#BF5347;" d="M336,164h-16c2.212,0,4,1.788,4,4v192c0,2.212-1.788,4-4,4h16c2.212,0,4-1.788,4-4V168
	C340,165.788,338.212,164,336,164z"/>
<path style="fill:#CC4B3D;" d="M367.752,140.012c0-0.304-0.044-0.604-0.104-0.904c-0.016-0.076-0.016-0.14-0.036-0.216
	c-0.096-0.34-0.24-0.672-0.424-0.98c-0.012-0.024-0.028-0.036-0.04-0.052c-0.052-0.08-0.112-0.136-0.168-0.212
	c-0.176-0.24-0.368-0.46-0.584-0.652c-0.036-0.032-0.06-0.072-0.088-0.1C333.092,109.76,295.988,96,256,96s-77.1,13.76-110.3,40.904
	c-0.036,0.036-0.056,0.076-0.092,0.1c-0.216,0.192-0.408,0.416-0.58,0.648c-0.056,0.076-0.124,0.136-0.172,0.216
	c-0.008,0.02-0.028,0.032-0.036,0.052c-0.188,0.304-0.328,0.636-0.424,0.976c-0.02,0.084-0.02,0.156-0.04,0.244
	c-0.064,0.284-0.104,0.58-0.104,0.872c0,0.128,0.024,0.252,0.036,0.384c0.024,0.252,0.068,0.5,0.144,0.752
	c0.02,0.072,0.012,0.14,0.04,0.212c0.028,0.076,0.076,0.124,0.108,0.196c0.04,0.092,0.056,0.2,0.1,0.284l14.368,28
	c0.684,1.336,2.06,2.176,3.56,2.176h186.808c1.5,0,2.876-0.84,3.56-2.176l14.368-28c0.052-0.088,0.068-0.196,0.104-0.292
	c0.028-0.068,0.08-0.112,0.096-0.188c0.028-0.068,0.02-0.132,0.044-0.2c0.076-0.252,0.116-0.508,0.14-0.768
	C367.736,140.252,367.752,140.132,367.752,140.012z"/>
<path style="fill:#BF4639;" d="M367.644,139.108c-0.016-0.076-0.016-0.14-0.036-0.216c-0.096-0.34-0.24-0.672-0.424-0.98
	c-0.012-0.024-0.028-0.036-0.04-0.052c-0.052-0.08-0.112-0.136-0.168-0.212c-0.176-0.24-0.368-0.46-0.584-0.652
	c-0.036-0.032-0.06-0.072-0.088-0.1C333.092,109.76,295.988,96,256,96c-2.68,0-5.344,0.076-8,0.196
	c36.944,1.72,71.324,15.392,102.3,40.708c0.036,0.036,0.06,0.076,0.088,0.1c0.22,0.192,0.412,0.416,0.584,0.652
	c0.056,0.076,0.116,0.132,0.168,0.212c0.012,0.016,0.028,0.028,0.04,0.052c0.192,0.308,0.328,0.64,0.424,0.98
	c0.02,0.076,0.02,0.14,0.036,0.216c0.068,0.292,0.104,0.592,0.104,0.904c0,0.12-0.024,0.244-0.032,0.364
	c-0.028,0.26-0.076,0.516-0.148,0.768c-0.016,0.068-0.016,0.132-0.04,0.2c-0.024,0.076-0.08,0.12-0.1,0.188
	c-0.04,0.096-0.06,0.2-0.1,0.292l-14.368,28c-0.688,1.336-2.064,2.176-3.564,2.176h16c1.5,0,2.876-0.84,3.564-2.176l14.368-28
	c0.048-0.092,0.072-0.196,0.1-0.292c0.032-0.068,0.084-0.112,0.1-0.188c0.024-0.068,0.024-0.132,0.04-0.2
	c0.08-0.252,0.12-0.508,0.148-0.768c0.008-0.12,0.032-0.244,0.032-0.364C367.752,139.708,367.712,139.408,367.644,139.108z"/>
<path style="fill:#CC4B3D;" d="M352,420H164c-2.208,0-4-1.788-4-4v-56c0-2.212,1.792-4,4-4h188c2.212,0,4,1.788,4,4v56
	C356,418.212,354.212,420,352,420z"/>
<path style="fill:#BF4639;" d="M352,356h-16c2.212,0,4,1.788,4,4v56c0,2.212-1.788,4-4,4h16c2.212,0,4-1.788,4-4v-56
	C356,357.788,354.212,356,352,356z"/>
<path style="fill:#994239;" d="M302,216h-88c-6.628,0-12-5.372-12-12s5.372-12,12-12h88c6.628,0,12,5.372,12,12S308.628,216,302,216
	z"/>
<rect x="211.532" y="256" style="fill:#CCCCCC;" width="92.92" height="56"/>
<polygon style="fill:#E6E6E6;" points="211.532,312.004 258,286.98 304.468,312.004 "/>
<polygon style="fill:#F5F5F5;" points="211.532,256 258,290.556 304.468,256 "/>
<g>
</g>
<g>
</g>
<g>
</g>
<g>
</g>
<g>
</g>
<g>
</g>
<g>
</g>
<g>
</g>
<g>
</g>
<g>
</g>
<g>
</g>
<g>
</g>
<g>
</g>
<g>
</g>
<g>
</g>
</svg>
